<?xml version="1.0" encoding="UTF-8"?>
<svg width="300px" height="191px" viewBox="0 0 300 191" version="1.1" xmlns="http://www.w3.org/2000/svg" xmlns:xlink="http://www.w3.org/1999/xlink">
    <!-- Generator: Sketch 63.1 (92452) - https://sketch.com -->
    <title>Izquierda Copy</title>
    <desc>Created with Sketch.</desc>
    <g id="Stories-maquetados" stroke="none" stroke-width="1" fill="none" fill-rule="evenodd">
        <g id="Izquierda-Copy" transform="translate(0.000000, -1.000000)">
            <g id="Forma1-Copy-3" transform="translate(0.000000, 0.571429)" fill="#113255" fill-opacity="0.332085883">
                <path d="M297.865838,39.1666957 C301.458047,29.748054 298.327993,18.1281321 290.318297,11.9349705 C284.845454,7.70227729 277.817088,5.80176206 270.897758,5.6588737 C259.433899,5.42205871 248.385179,9.64176206 237.578541,12.9231984 C226.524819,16.2805755 215.38907,19.4401071 204.062257,21.7532999 C184.778765,25.6912234 165.585303,25.2645568 146.38684,21.106805 C112.310367,13.72757 78.6430325,-4.59011928 42.8669879,1.73394005 C41.7916259,1.92379173 40.7182645,2.13362779 39.6519055,2.36844434 C39.2917843,2.44738267 38.931663,2.52831944 38.5735425,2.61225387 C20.5014582,6.81696893 3.08759553,20.1175778 0.315662314,39.5773749 C-1.82105705,54.573659 7.14596185,67.9602008 19.4611079,75.5552671 C48.0007163,93.1555169 80.1885529,106.785868 113.859889,109.582683 C143.12174,112.012785 172.28856,105.991489 199.588751,95.6835419 C222.063317,87.1961727 243.66559,76.3066801 265.039786,65.3992016 C277.106849,59.2400134 292.071887,53.1877418 297.642762,39.7272578 C297.719788,39.541403 297.794814,39.3535497 297.865838,39.1666957" id="Fill-1"></path>
            </g>
            <g id="estrellas-copy-4" transform="translate(78.571429, 9.000000)">
                <path d="M159.276884,111.819451 C158.623172,112.041363 158.900835,113.134527 159.563293,113.078776 C159.699939,113.066751 159.832211,113.002254 159.934969,112.908242 L160.007118,112.865609 C160.536209,112.446927 159.767715,111.65329 159.276884,111.819451" id="Fill-33" fill="#FFFFFF"></path>
                <path d="M191.727162,125.747358 C191.07345,125.96927 191.351114,127.062435 192.013572,127.006683 C192.150217,126.994658 192.28249,126.930162 192.385247,126.83615 L192.457396,126.793516 C192.986488,126.374834 192.217993,125.581197 191.727162,125.747358" id="Fill-33-Copy" fill="#FFFFFF"></path>
                <path d="M33.1557339,87.1759293 C32.5020216,87.3978417 32.7796854,88.491006 33.442143,88.4352546 C33.5787885,88.4232298 33.7110614,88.3587331 33.8138188,88.264721 L33.8859677,88.2220876 C34.4150592,87.8034057 33.6465647,87.0097684 33.1557339,87.1759293" id="Fill-33-Copy" fill="#FFFFFF"></path>
                <path d="M3.1557339,70.0330722 C2.50202163,70.2549846 2.77968537,71.3481489 3.44214295,71.2923975 C3.57878849,71.2803727 3.71106137,71.215876 3.81381882,71.1218639 L3.88596767,71.0792305 C4.4150592,70.6605485 3.64656468,69.8669112 3.1557339,70.0330722" id="Fill-33-Copy" fill="#FFFFFF"></path>
                <path d="M71.7271625,44.3187865 C71.0734502,44.5406989 71.3511139,45.6338632 72.0135715,45.5781118 C72.1502171,45.566087 72.2824899,45.5015903 72.3852474,45.4075782 L72.4573962,45.3649447 C72.9864878,44.9462628 72.2179933,44.1526255 71.7271625,44.3187865" id="Fill-33-Copy" fill="#FFFFFF"></path>
                <path d="M80.298591,31.4616436 C79.6448788,31.683556 79.9225425,32.7767203 80.5850001,32.7209689 C80.7216456,32.7089441 80.8539185,32.6444474 80.956676,32.5504353 L81.0288248,32.5078019 C81.5579163,32.08912 80.7894218,31.2954827 80.298591,31.4616436" id="Fill-33-Copy" fill="#FFFFFF"></path>
                <path d="M213.076662,94.9091924 C212.422949,95.1311048 212.700613,96.2242691 213.363071,96.1685177 C213.499716,96.1564929 213.631989,96.0919962 213.734747,95.9979841 L213.806895,95.9553507 C214.335987,95.5366687 213.567492,94.7430314 213.076662,94.9091924" id="Fill-33-Copy" fill="#FFFFFF"></path>
                <path d="M202.797273,177.1443 C202.143561,177.366213 202.421225,178.459377 203.083682,178.403626 C203.220328,178.391601 203.352601,178.327104 203.455358,178.233092 L203.527507,178.190459 C204.056598,177.771777 203.288104,176.978139 202.797273,177.1443" id="Fill-33-Copy" fill="#FFFFFF"></path>
                <path d="M144.283831,180.307189 C143.630119,180.529102 143.907782,181.622266 144.57024,181.566515 C144.706885,181.55449 144.839158,181.489993 144.941916,181.395981 L145.014065,181.353347 C145.543156,180.934666 144.774662,180.141028 144.283831,180.307189" id="Fill-33-Copy" fill="#FFFFFF"></path>
                <path d="M144.283831,180.307189 C143.630119,180.529102 143.907782,181.622266 144.57024,181.566515 C144.706885,181.55449 144.839158,181.489993 144.941916,181.395981 L145.014065,181.353347 C145.543156,180.934666 144.774662,180.141028 144.283831,180.307189" id="Fill-33-Copy" fill="#FFFFFF"></path>
                <path d="M145.684916,45.5455983 C145.031204,45.7675107 145.308868,46.860675 145.971325,46.8049236 C146.107971,46.7928988 146.240244,46.7284021 146.343001,46.63439 L146.41515,46.5917566 C146.944241,46.1730746 146.175747,45.3794373 145.684916,45.5455983" id="Fill-41" fill="#FFFFFF"></path>
                <path d="M187.22516,50.8277683 C186.571448,51.0496807 186.849112,52.142845 187.511569,52.0870936 C187.648215,52.0750688 187.780488,52.0105721 187.883245,51.91656 L187.955394,51.8739266 C188.484486,51.4552446 187.715991,50.6616073 187.22516,50.8277683" id="Fill-43" fill="#FFFFFF"></path>
                <path d="M97.5856859,108.764931 C96.9319736,108.986843 97.2096373,110.080007 97.8720949,110.025349 C98.0087405,110.013324 98.1410133,109.947735 98.2437708,109.854816 L98.3159196,109.812182 C98.8450112,109.392407 98.0765166,108.59877 97.5856859,108.764931" id="Fill-45" fill="#FFFFFF"></path>
                <path d="M89.9335356,63.9457402 C89.2798233,64.1676525 89.5574871,65.2608169 90.2199447,65.2050655 C90.3565902,65.1930407 90.4888631,65.128544 90.5916205,65.0345318 L90.6637694,64.9918984 C91.1928609,64.5732165 90.4243664,63.7795792 89.9335356,63.9457402" id="Fill-49" fill="#FFFFFF"></path>
                <path d="M0.37239178,0.813251437 C-0.281320485,1.03516379 -0.00365674674,2.12832812 0.658800832,2.07257674 C0.795446373,2.06055193 0.927719256,1.99605523 1.0304767,1.9020431 L1.10262555,1.85940969 C1.63171708,1.44072776 0.863222561,0.64709046 0.37239178,0.813251437" id="Fill-49-Copy-3" fill="#FFFFFF"></path>
                <path d="M128.4385,88.3265841 C128.192538,88.2752053 127.937831,88.2588079 127.687496,88.2555284 C127.601136,88.2544352 127.513683,88.2522489 127.427323,88.2500626 C127.424043,88.0314297 127.414205,87.8127968 127.398901,87.5952571 C127.370478,87.2334197 127.322379,86.623434 126.898231,86.5009996 C126.834828,86.4824158 126.647897,87.1656435 126.633685,87.2345129 C126.581214,87.4793817 126.565909,87.734089 126.561537,87.9855168 C126.560443,88.0718768 126.558257,88.1582368 126.556071,88.2456899 C126.349463,88.2500626 126.141762,88.2588079 125.936247,88.2839506 C125.576596,88.3265841 124.931629,88.3429815 124.807008,88.7725951 C124.788424,88.8349055 125.470559,89.0218366 125.540521,89.0360477 C125.867377,89.1060102 126.21391,89.1103829 126.551698,89.1158487 C126.556071,89.3235499 126.565909,89.530158 126.591052,89.736766 C126.633685,90.0953239 126.64899,90.7402909 127.078603,90.8649116 C127.140914,90.8834954 127.327845,90.2013609 127.343149,90.1324915 C127.413112,89.8045422 127.416391,89.4591023 127.421857,89.1213145 C127.641583,89.118035 127.859123,89.1081965 128.077756,89.0917991 C128.4385,89.06447 129.048485,89.0152776 129.172013,88.5911298 C129.189504,88.5288195 128.506276,88.3407952 128.4385,88.3265841" id="Fill-57" fill="#D5D5FD"></path>
                <path d="M128.4385,88.3265841 C128.192538,88.2752053 127.937831,88.2588079 127.687496,88.2555284 C127.601136,88.2544352 127.513683,88.2522489 127.427323,88.2500626 C127.424043,88.0314297 127.414205,87.8127968 127.398901,87.5952571 C127.370478,87.2334197 127.322379,86.623434 126.898231,86.5009996 C126.834828,86.4824158 126.647897,87.1656435 126.633685,87.2345129 C126.581214,87.4793817 126.565909,87.734089 126.561537,87.9855168 C126.560443,88.0718768 126.558257,88.1582368 126.556071,88.2456899 C126.349463,88.2500626 126.141762,88.2588079 125.936247,88.2839506 C125.576596,88.3265841 124.931629,88.3429815 124.807008,88.7725951 C124.788424,88.8349055 125.470559,89.0218366 125.540521,89.0360477 C125.867377,89.1060102 126.21391,89.1103829 126.551698,89.1158487 C126.556071,89.3235499 126.565909,89.530158 126.591052,89.736766 C126.633685,90.0953239 126.64899,90.7402909 127.078603,90.8649116 C127.140914,90.8834954 127.327845,90.2013609 127.343149,90.1324915 C127.413112,89.8045422 127.416391,89.4591023 127.421857,89.1213145 C127.641583,89.118035 127.859123,89.1081965 128.077756,89.0917991 C128.4385,89.06447 129.048485,89.0152776 129.172013,88.5911298 C129.189504,88.5288195 128.506276,88.3407952 128.4385,88.3265841" id="Fill-57" fill="#D5D5FD"></path>
                <path d="M134.732301,66.2996488 C133.925351,66.5729866 134.268103,67.9194782 135.085848,67.8508071 C135.254525,67.8359957 135.417804,67.7565527 135.544649,67.6407545 L135.63371,67.5882413 C136.286827,67.072535 135.338189,66.0949821 134.732301,66.2996488" id="Fill-49-Copy" fill="#FFFFFF"></path>
                <path d="M197.349511,17.4236384 C196.542561,17.6969762 196.885312,19.0434678 197.703057,18.9747967 C197.871734,18.9599853 198.035013,18.8805423 198.161858,18.764744 L198.25092,18.7122308 C198.904036,18.1965245 197.955398,17.2189716 197.349511,17.4236384" id="Fill-49-Copy-2" fill="#FFFFFF"></path>
                <path d="M103.051507,55.2004256 C102.397795,55.422338 102.675459,56.5155023 103.337917,56.4597509 C103.474562,56.4477261 103.606835,56.3832294 103.709592,56.2892173 L103.781741,56.2465839 C104.310833,55.8279019 103.542338,55.0342646 103.051507,55.2004256" id="Fill-51" fill="#FFFFFF"></path>
                <path d="M128.4385,88.3265841 C128.192538,88.2752053 127.937831,88.2588079 127.687496,88.2555284 C127.601136,88.2544352 127.513683,88.2522489 127.427323,88.2500626 C127.424043,88.0314297 127.414205,87.8127968 127.398901,87.5952571 C127.370478,87.2334197 127.322379,86.623434 126.898231,86.5009996 C126.834828,86.4824158 126.647897,87.1656435 126.633685,87.2345129 C126.581214,87.4793817 126.565909,87.734089 126.561537,87.9855168 C126.560443,88.0718768 126.558257,88.1582368 126.556071,88.2456899 C126.349463,88.2500626 126.141762,88.2588079 125.936247,88.2839506 C125.576596,88.3265841 124.931629,88.3429815 124.807008,88.7725951 C124.788424,88.8349055 125.470559,89.0218366 125.540521,89.0360477 C125.867377,89.1060102 126.21391,89.1103829 126.551698,89.1158487 C126.556071,89.3235499 126.565909,89.530158 126.591052,89.736766 C126.633685,90.0953239 126.64899,90.7402909 127.078603,90.8649116 C127.140914,90.8834954 127.327845,90.2013609 127.343149,90.1324915 C127.413112,89.8045422 127.416391,89.4591023 127.421857,89.1213145 C127.641583,89.118035 127.859123,89.1081965 128.077756,89.0917991 C128.4385,89.06447 129.048485,89.0152776 129.172013,88.5911298 C129.189504,88.5288195 128.506276,88.3407952 128.4385,88.3265841" id="Fill-57" fill="#D5D5FD"></path>
                <path d="M160.194859,66.6651764 C159.948897,66.6137977 159.69419,66.5974002 159.443855,66.5941207 C159.357495,66.5930276 159.270042,66.5908412 159.183682,66.5886549 C159.180402,66.3700221 159.170564,66.1513892 159.15526,65.9338495 C159.126837,65.5720121 159.078738,64.9620264 158.65459,64.839592 C158.591187,64.8210082 158.404256,65.5042359 158.390045,65.5731053 C158.337573,65.8179741 158.322268,66.0726814 158.317896,66.3241092 C158.316803,66.4104691 158.314616,66.4968291 158.31243,66.5842823 C158.105822,66.5886549 157.898121,66.5974002 157.692606,66.622543 C157.332955,66.6651764 156.687988,66.6815739 156.563367,67.1111875 C156.544783,67.1734978 157.226918,67.3604289 157.29688,67.3746401 C157.623736,67.4446026 157.970269,67.4489752 158.308057,67.4544411 C158.31243,67.6621423 158.322268,67.8687503 158.347411,68.0753584 C158.390045,68.4339163 158.405349,69.0788832 158.834962,69.203504 C158.897273,69.2220878 159.084204,68.5399532 159.099508,68.4710839 C159.169471,68.1431346 159.17275,67.7976947 159.178216,67.4599069 C159.397942,67.4566274 159.615482,67.4467889 159.834115,67.4303914 C160.194859,67.4030623 160.804845,67.3538699 160.928372,66.9297222 C160.945863,66.8674118 160.262635,66.6793876 160.194859,66.6651764" id="Fill-57" fill="#D5D5FD"></path>
                <path d="M53.4473628,13.6867895 C53.2014008,13.6354108 52.9466935,13.6190133 52.6963589,13.6157338 C52.6099989,13.6146407 52.5225458,13.6124543 52.4361858,13.610268 C52.4329063,13.3916351 52.4230678,13.1730023 52.4077635,12.9554626 C52.3793413,12.5936252 52.331242,11.9836395 51.9070943,11.8612051 C51.8436907,11.8426213 51.6567596,12.525849 51.6425485,12.5947183 C51.5900766,12.8395871 51.5747723,13.0942944 51.5703997,13.3457222 C51.5693065,13.4320822 51.5671202,13.5184422 51.5649338,13.6058953 C51.3583258,13.610268 51.1506246,13.6190133 50.9451097,13.6441561 C50.5854586,13.6867895 49.9404917,13.703187 49.8158709,14.1328005 C49.7972871,14.1951109 50.4794217,14.382042 50.5493842,14.3962531 C50.8762403,14.4662157 51.2227734,14.4705883 51.5605612,14.4760541 C51.5649338,14.6837554 51.5747723,14.8903634 51.5999151,15.0969715 C51.6425485,15.4555294 51.6578528,16.1004963 52.0874664,16.2251171 C52.1497767,16.2437008 52.3367078,15.5615663 52.3520121,15.492697 C52.4219747,15.1647477 52.4252542,14.8193077 52.43072,14.48152 C52.650446,14.4782405 52.8679857,14.468402 53.0866186,14.4520045 C53.4473628,14.4246754 54.0573485,14.375483 54.1808761,13.9513353 C54.1983667,13.8890249 53.515139,13.7010006 53.4473628,13.6867895" id="Fill-57-Copy-3" fill="#D5D5FD"></path>
                <path d="M31.3071414,179.73845 C31.0611794,179.687071 30.8064721,179.670674 30.5561375,179.667394 C30.4697775,179.666301 30.3823244,179.664115 30.2959644,179.661929 C30.2926849,179.443296 30.2828464,179.224663 30.2675421,179.007123 C30.2391199,178.645286 30.1910206,178.0353 29.7668729,177.912866 C29.7034693,177.894282 29.5165382,178.57751 29.5023271,178.646379 C29.4498552,178.891248 29.4345509,179.145955 29.4301783,179.397383 C29.4290851,179.483743 29.4268988,179.570103 29.4247124,179.657556 C29.2181044,179.661929 29.0104032,179.670674 28.8048883,179.695817 C28.4452372,179.73845 27.8002703,179.754847 27.6756495,180.184461 C27.6570657,180.246771 28.3392003,180.433703 28.4091628,180.447914 C28.7360189,180.517876 29.082552,180.522249 29.4203398,180.527715 C29.4247124,180.735416 29.4345509,180.942024 29.4596937,181.148632 C29.5023271,181.50719 29.5176314,182.152157 29.947245,182.276778 C30.0095553,182.295361 30.1964864,181.613227 30.2117907,181.544357 C30.2817533,181.216408 30.2850328,180.870968 30.2904986,180.53318 C30.5102246,180.529901 30.7277643,180.520063 30.9463972,180.503665 C31.3071414,180.476336 31.9171271,180.427144 32.0406547,180.002996 C32.0581453,179.940685 31.3749176,179.752661 31.3071414,179.73845" id="Fill-57-Copy-4" fill="#D5D5FD"></path>
                <path d="M198.149524,140.993063 C197.903562,140.941684 197.648855,140.925286 197.39852,140.922007 C197.31216,140.920914 197.224707,140.918727 197.138347,140.916541 C197.135068,140.697908 197.125229,140.479275 197.109925,140.261736 C197.081503,139.899898 197.033403,139.289913 196.609256,139.167478 C196.545852,139.148894 196.358921,139.832122 196.34471,139.900991 C196.292238,140.14586 196.276934,140.400567 196.272561,140.651995 C196.271468,140.738355 196.269281,140.824715 196.267095,140.912168 C196.060487,140.916541 195.852786,140.925286 195.647271,140.950429 C195.28762,140.993063 194.642653,141.00946 194.518032,141.439074 C194.499448,141.501384 195.181583,141.688315 195.251545,141.702526 C195.578402,141.772489 195.924935,141.776861 196.262722,141.782327 C196.267095,141.990028 196.276934,142.196636 196.302076,142.403245 C196.34471,142.761802 196.360014,143.406769 196.789628,143.53139 C196.851938,143.549974 197.038869,142.867839 197.054173,142.79897 C197.124136,142.471021 197.127415,142.125581 197.132881,141.787793 C197.352607,141.784514 197.570147,141.774675 197.78878,141.758278 C198.149524,141.730948 198.75951,141.681756 198.883037,141.257608 C198.900528,141.195298 198.2173,141.007274 198.149524,140.993063" id="Fill-57-Copy-5" fill="#D5D5FD"></path>
                <path d="M183.916525,87.2239534 C183.670563,87.1725747 183.415855,87.1561773 183.165521,87.1528978 C183.079161,87.1518046 182.991708,87.1496183 182.905348,87.1474319 C182.902068,86.9287991 182.89223,86.7101662 182.876925,86.4926265 C182.848503,86.1307891 182.800404,85.5208034 182.376256,85.398369 C182.312853,85.3797852 182.125921,86.0630129 182.11171,86.1318823 C182.059238,86.3767511 182.043934,86.6314584 182.039561,86.8828862 C182.038468,86.9692462 182.036282,87.0556061 182.034096,87.1430593 C181.827488,87.1474319 181.619786,87.1561773 181.414272,87.18132 C181.05462,87.2239534 180.409653,87.2403509 180.285033,87.6699645 C180.266449,87.7322748 180.948583,87.9192059 181.018546,87.9334171 C181.345402,88.0033796 181.691935,88.0077523 182.029723,88.0132181 C182.034096,88.2209193 182.043934,88.4275274 182.069077,88.6341354 C182.11171,88.9926933 182.127015,89.6376603 182.556628,89.762281 C182.618939,89.7808648 182.80587,89.0987303 182.821174,89.0298609 C182.891136,88.7019116 182.894416,88.3564717 182.899882,88.0186839 C183.119608,88.0154044 183.337148,88.0055659 183.55578,87.9891685 C183.916525,87.9618394 184.52651,87.912647 184.650038,87.4884992 C184.667529,87.4261888 183.984301,87.2381646 183.916525,87.2239534" id="Fill-57-Copy-6" fill="#D5D5FD"></path>
                <path d="M205.266024,50.0600104 C205.020062,50.0086316 204.765355,49.9922342 204.51502,49.9889547 C204.42866,49.9878615 204.341207,49.9856752 204.254847,49.9834889 C204.251567,49.764856 204.241729,49.5462231 204.226425,49.3286834 C204.198002,48.966846 204.149903,48.3568604 203.725755,48.234426 C203.662352,48.2158422 203.475421,48.8990699 203.46121,48.9679392 C203.408738,49.212808 203.393433,49.4675153 203.389061,49.7189431 C203.387968,49.8053031 203.385781,49.8916631 203.383595,49.9791162 C203.176987,49.9834889 202.969286,49.9922342 202.763771,50.017377 C202.40412,50.0600104 201.759153,50.0764078 201.634532,50.5060214 C201.615948,50.5683318 202.298083,50.7552629 202.368045,50.769474 C202.694901,50.8394365 203.041434,50.8438092 203.379222,50.849275 C203.383595,51.0569762 203.393433,51.2635843 203.418576,51.4701923 C203.46121,51.8287502 203.476514,52.4737172 203.906127,52.5983379 C203.968438,52.6169217 204.155369,51.9347872 204.170673,51.8659178 C204.240636,51.5379685 204.243915,51.1925286 204.249381,50.8547408 C204.469107,50.8514613 204.686647,50.8416229 204.90528,50.8252254 C205.266024,50.7978963 205.87601,50.7487039 205.999537,50.3245561 C206.017028,50.2622458 205.3338,50.0742215 205.266024,50.0600104" id="Fill-57-Copy-7" fill="#D5D5FD"></path>
                <path d="M200.521691,32.6641221 C200.275729,32.6127434 200.021021,32.5963459 199.770687,32.5930664 C199.684327,32.5919733 199.596874,32.589787 199.510514,32.5876006 C199.507234,32.3689678 199.497396,32.1503349 199.482091,31.9327952 C199.453669,31.5709578 199.40557,30.9609721 198.981422,30.8385377 C198.918019,30.8199539 198.731088,31.5031816 198.716876,31.572051 C198.664405,31.8169198 198.6491,32.0716271 198.644728,32.3230549 C198.643634,32.4094148 198.641448,32.4957748 198.639262,32.583228 C198.432654,32.5876006 198.224952,32.5963459 198.019438,32.6214887 C197.659786,32.6641221 197.01482,32.6805196 196.890199,33.1101332 C196.871615,33.1724435 197.55375,33.3593746 197.623712,33.3735858 C197.950568,33.4435483 198.297101,33.4479209 198.634889,33.4533868 C198.639262,33.661088 198.6491,33.867696 198.674243,34.0743041 C198.716876,34.432862 198.732181,35.0778289 199.161794,35.2024497 C199.224105,35.2210335 199.411036,34.5388989 199.42634,34.4700296 C199.496303,34.1420803 199.499582,33.7966404 199.505048,33.4588526 C199.724774,33.4555731 199.942314,33.4457346 200.160946,33.4293372 C200.521691,33.402008 201.131676,33.3528156 201.255204,32.9286679 C201.272695,32.8663575 200.589467,32.6783333 200.521691,32.6641221" id="Fill-57-Copy-8" fill="#D5D5FD"></path>
                <path d="M145.171137,1.8259566 C144.925175,1.77457788 144.670468,1.75818041 144.420133,1.75490092 C144.333773,1.75380776 144.24632,1.75162143 144.15996,1.7494351 C144.156681,1.53080223 144.146842,1.31216937 144.131538,1.09462967 C144.103116,0.732792279 144.055016,0.122806588 143.630869,0.00037218367 C143.567465,-0.0182116098 143.380534,0.665016091 143.366323,0.733885444 C143.313851,0.978754252 143.298547,1.23346154 143.294174,1.48488933 C143.293081,1.57124931 143.290895,1.6576093 143.288708,1.74506244 C143.0821,1.7494351 142.874399,1.75818041 142.668884,1.78332319 C142.309233,1.8259566 141.664266,1.84235407 141.539645,2.27196764 C141.521062,2.33427801 142.203196,2.52120911 142.273159,2.53542025 C142.600015,2.60538276 142.946548,2.60975542 143.284336,2.61522124 C143.288708,2.82292246 143.298547,3.02953052 143.323689,3.23613858 C143.366323,3.59469647 143.381627,4.23966342 143.811241,4.36428416 C143.873551,4.38286795 144.060482,3.70073341 144.075787,3.63186406 C144.145749,3.30391476 144.149029,2.95847484 144.154494,2.62068706 C144.37422,2.61740757 144.59176,2.60756909 144.810393,2.59117163 C145.171137,2.56384252 145.781123,2.51465012 145.90465,2.09050237 C145.922141,2.028192 145.238913,1.84016774 145.171137,1.8259566" id="Fill-57-Copy-9" fill="#D5D5FD"></path>
                <path d="M167.311359,166.296173 C167.065397,166.244794 166.810689,166.228397 166.560355,166.225117 C166.473995,166.224024 166.386542,166.221838 166.300182,166.219651 C166.296902,166.001018 166.287064,165.782386 166.271759,165.564846 C166.243337,165.203008 166.195238,164.593023 165.77109,164.470588 C165.707687,164.452005 165.520755,165.135232 165.506544,165.204102 C165.454072,165.44897 165.438768,165.703678 165.434395,165.955105 C165.433302,166.041465 165.431116,166.127825 165.42893,166.215279 C165.222322,166.219651 165.01462,166.228397 164.809105,166.253539 C164.449454,166.296173 163.804487,166.31257 163.679867,166.742184 C163.661283,166.804494 164.343417,166.991425 164.41338,167.005636 C164.740236,167.075599 165.086769,167.079972 165.424557,167.085437 C165.42893,167.293139 165.438768,167.499747 165.463911,167.706355 C165.506544,168.064913 165.521849,168.70988 165.951462,168.8345 C166.013773,168.853084 166.200704,168.17095 166.216008,168.10208 C166.28597,167.774131 166.28925,167.428691 166.294716,167.090903 C166.514442,167.087624 166.731981,167.077785 166.950614,167.061388 C167.311359,167.034059 167.921344,166.984866 168.044872,166.560718 C168.062362,166.498408 167.379135,166.310384 167.311359,166.296173" id="Fill-57-Copy" fill="#D5D5FD"></path>
                <path d="M37.3560485,54.5609245 C37.1100865,54.5095458 36.8553792,54.4931483 36.6050446,54.4898688 C36.5186846,54.4887756 36.4312315,54.4865893 36.3448715,54.484403 C36.341592,54.2657701 36.3317535,54.0471372 36.3164492,53.8295975 C36.2880269,53.4677602 36.2399277,52.8577745 35.8157799,52.7353401 C35.7523764,52.7167563 35.5654453,53.399984 35.5512342,53.4688533 C35.4987623,53.7137221 35.483458,53.9684294 35.4790853,54.2198572 C35.4779922,54.3062172 35.4758058,54.3925772 35.4736195,54.4800303 C35.2670115,54.484403 35.0593102,54.4931483 34.8537953,54.5182911 C34.4941443,54.5609245 33.8491773,54.5773219 33.7245566,55.0069355 C33.7059728,55.0692459 34.3881073,55.256177 34.4580699,55.2703881 C34.784926,55.3403506 35.1314591,55.3447233 35.4692469,55.3501891 C35.4736195,55.5578903 35.483458,55.7644984 35.5086008,55.9711065 C35.5512342,56.3296643 35.5665385,56.9746313 35.9961521,57.099252 C36.0584624,57.1178358 36.2453935,56.4357013 36.2606978,56.3668319 C36.3306603,56.0388826 36.3339398,55.6934427 36.3394057,55.3556549 C36.5591317,55.3523754 36.7766714,55.342537 36.9953043,55.3261395 C37.3560485,55.2988104 37.9660342,55.249618 38.0895617,54.8254702 C38.1070524,54.7631599 37.4238247,54.5751356 37.3560485,54.5609245" id="Fill-59" fill="#D5D5FD"></path>
                <path d="M15.492762,106.827297 C15.2468001,106.775918 14.9920928,106.759521 14.7417581,106.756241 C14.6553982,106.755148 14.567945,106.752962 14.481585,106.750776 C14.4783055,106.532143 14.4684671,106.31351 14.4531628,106.09597 C14.4247405,105.734133 14.3766413,105.124147 13.9524935,105.000619 C13.88909,104.983129 13.7021589,105.666357 13.6879477,105.735226 C13.6354759,105.981188 13.6201716,106.235895 13.6157989,106.48623 C13.6147057,106.57259 13.6125194,106.660043 13.6103331,106.746403 C13.403725,106.750776 13.1960238,106.759521 12.9905089,106.784664 C12.6308578,106.827297 11.9858909,106.844788 11.8612702,107.272215 C11.8426864,107.335618 12.5248209,107.52255 12.5947834,107.536761 C12.9216396,107.606723 13.2681726,107.611096 13.6059604,107.616562 C13.6103331,107.82317 13.6201716,108.031964 13.6453143,108.237479 C13.6879477,108.596037 13.703252,109.241004 14.1328656,109.365625 C14.195176,109.384208 14.3821071,108.702074 14.3974114,108.633205 C14.4673739,108.306348 14.4706534,107.959815 14.4761192,107.623121 C14.6958452,107.618748 14.9133849,107.60891 15.1320178,107.592512 C15.492762,107.565183 16.1027477,107.517084 16.2262753,107.091843 C16.2437659,107.029532 15.5605382,106.842601 15.492762,106.827297" id="Fill-61" fill="#D5D5FD"></path>
                <path d="M64.7835413,115.607156 C64.5375793,115.554684 64.2828721,115.539379 64.0325374,115.5361 C63.9450843,115.535007 63.8587243,115.53282 63.7723643,115.530634 C63.7690848,115.310908 63.7592463,115.093368 63.743942,114.875829 C63.7155198,114.513991 63.6674205,113.904006 63.2432728,113.780478 C63.1798693,113.762987 62.991845,114.446215 62.978727,114.515084 C62.9262551,114.761046 62.9098577,115.014661 62.9065782,115.266088 C62.905485,115.352448 62.9032987,115.438808 62.9011124,115.526261 C62.6945043,115.530634 62.4868031,115.539379 62.2812882,115.564522 C61.9216371,115.607156 61.2766702,115.623553 61.1520494,116.052073 C61.1334656,116.115477 61.8156002,116.302408 61.8855627,116.316619 C62.2124188,116.386582 62.5589519,116.390954 62.8967397,116.39642 C62.9011124,116.603028 62.9109508,116.81073 62.9360936,117.017338 C62.978727,117.375895 62.9940313,118.020862 63.4236449,118.145483 C63.4859553,118.164067 63.6728864,117.481932 63.6881907,117.413063 C63.75706,117.086207 63.7614327,116.739674 63.7668985,116.401886 C63.9855314,116.398607 64.2041642,116.388768 64.4217039,116.372371 C64.7835413,116.345042 65.393527,116.295849 65.5170546,115.871701 C65.5345452,115.809391 64.8513175,115.62246 64.7835413,115.607156" id="Fill-71" fill="#D5D5FD"></path>
            </g>
            <g id="cohete-copy-2" transform="translate(190.600000, 108.600000)" fill-rule="nonzero">
                <path d="M12.6049315,28.6394366 L18.4297456,34.4619718 L34.7290802,19.1070423 C29.1156164,16.9605634 18.1845793,23.0450704 12.6049315,28.6394366 Z" id="Path" fill="#263238"></path>
                <path d="M32.9114677,48.9211268 L27.0528376,43.0985915 L42.4137769,26.7971831 C44.5864579,32.4084507 38.4911155,43.343662 32.9114677,48.9211268 Z" id="Path" fill="#263238"></path>
                <path d="M55.1962427,12.2450704 L61.5452055,0 L49.3037965,6.35492958 C45.3710823,8.37958149 41.7379515,10.9391261 38.5080235,13.9605634 L17.6350685,33.6507042 L27.8982387,43.943662 L47.545362,23.0788732 C50.5865265,19.8402382 53.1615632,16.1939337 55.1962427,12.2450704 L55.1962427,12.2450704 Z" id="Path" fill="#407BFF"></path>
                <path d="M55.1962427,12.2450704 L61.5452055,0 L49.3037965,6.35492958 C45.3710823,8.37958149 41.7379515,10.9391261 38.5080235,13.9605634 L17.6350685,33.6507042 L27.8982387,43.943662 L47.545362,23.0788732 C50.5865265,19.8402382 53.1615632,16.1939337 55.1962427,12.2450704 L55.1962427,12.2450704 Z" id="Path" fill="#FFFFFF" opacity="0.6"></path>
                <ellipse id="Oval" fill="#FFFFFF" cx="42.1517025" cy="19.3859155" rx="4.29463796" ry="4.29295775"></ellipse>
                <ellipse id="Oval" fill="#407BFF" cx="42.1517025" cy="19.3859155" rx="2.75600783" ry="2.75492958"></ellipse>
                <polygon id="Path" fill="#407BFF" opacity="0.3" points="31.3559295 40.2169014 21.3125636 30.1774648 29.538317 22.4450704 39.0998043 32.0028169"></polygon>
                <path d="M14.8790607,37.8253521 C7.36344423,38.4338028 4.86951076,43.2422535 4.01565558,49.656338 C3.58450098,52.9183099 3.39005871,56.2225352 0.634050881,58.1070423 C0.288448896,58.3341796 0.136587572,58.7636739 0.262645585,59.1574511 C0.388703598,59.5512283 0.761793846,59.8128038 1.17510763,59.7971831 C11.2691977,59.484507 15.9780822,54.5408451 16.569863,52.4788732 C16.4121563,53.5589701 16.1284225,54.616883 15.7244618,55.6309859 C15.5801361,55.9987817 15.6865198,56.4176201 15.988888,56.6720457 C16.2912563,56.9264713 16.7222639,56.9598171 17.0601957,56.7549296 C19.8922896,54.9802817 23.4429746,51.684507 23.6796869,46.4197183 C21.633816,43.4704225 14.8790607,37.8253521 14.8790607,37.8253521 Z" id="Path" fill="#407BFF"></path>
                <path d="M14.8790607,37.8253521 C7.36344423,38.4338028 4.86951076,43.2422535 4.01565558,49.656338 C3.58450098,52.9183099 3.39005871,56.2225352 0.634050881,58.1070423 C0.288448896,58.3341796 0.136587572,58.7636739 0.262645585,59.1574511 C0.388703598,59.5512283 0.761793846,59.8128038 1.17510763,59.7971831 C11.2691977,59.484507 15.9780822,54.5408451 16.569863,52.4788732 C16.4121563,53.5589701 16.1284225,54.616883 15.7244618,55.6309859 C15.5801361,55.9987817 15.6865198,56.4176201 15.988888,56.6720457 C16.2912563,56.9264713 16.7222639,56.9598171 17.0601957,56.7549296 C19.8922896,54.9802817 23.4429746,51.684507 23.6796869,46.4197183 C21.633816,43.4704225 14.8790607,37.8253521 14.8790607,37.8253521 Z" id="Path" fill="#FFFFFF" opacity="0.2"></path>
                <polygon id="Path" fill="#407BFF" points="24.8801566 48.6929577 12.8331898 36.6507042 19.2497847 35.2647887 26.2666145 42.2788732"></polygon>
            </g>
            <g id="Group-7-Copy" transform="translate(242.714286, 67.285714)" fill="#407BFF" fill-rule="nonzero" opacity="0.2">
                <circle id="Oval" cx="6.31383807" cy="6.31383807" r="6.31383807"></circle>
                <path d="M10.302355,1.42672246 C7.41076035,0.534772829 4.29322696,1.82257833 2.87410954,4.49521739 C1.45499212,7.16785644 2.1344156,10.4717694 4.49299338,12.3675555 C5.08326547,12.5468142 5.69694885,12.6371398 6.31383807,12.6356004 C8.98987348,12.6452598 11.3806015,10.9648766 12.2777347,8.44368405 C13.1748679,5.92249154 12.3830038,3.10962479 10.302355,1.42672246 L10.302355,1.42672246 Z" id="Path"></path>
            </g>
            <g id="Group-8-Copy-2" transform="translate(160.428571, 119.142857)" fill-rule="nonzero">
                <circle id="Oval" fill="#407BFF" cx="4.53240561" cy="4.53240561" r="4.53240561"></circle>
                <path d="M2.13526664,3.75686065 C2.78578086,1.74510277 4.74338942,0.452579166 6.84896847,0.644608797 C6.55798641,0.467306894 6.24691987,0.325298255 5.92234332,0.221584274 C3.57559804,-0.441173877 1.12510396,0.871629986 0.376783259,3.19250868 C-0.371537442,5.51338738 0.850574254,8.01034918 3.14246789,8.84322694 C3.46914229,8.94963188 3.80719855,9.01724313 4.14966913,9.04466719 C2.32527466,7.9691587 1.48887879,5.77361954 2.13526664,3.75686065 L2.13526664,3.75686065 Z" id="Path" fill="#FFFFFF" opacity="0.2"></path>
            </g>
        </g>
    </g>
</svg>