<?xml version="1.0" encoding="UTF-8"?>
<svg width="300px" height="211px" viewBox="0 0 300 211" version="1.1" xmlns="http://www.w3.org/2000/svg" xmlns:xlink="http://www.w3.org/1999/xlink">
    <!-- Generator: Sketch 63.1 (92452) - https://sketch.com -->
    <title>Derecha Copy</title>
    <desc>Created with Sketch.</desc>
    <defs>
        <linearGradient x1="14.2515674%" y1="50%" x2="96.472553%" y2="49.6023992%" id="linearGradient-1">
            <stop stop-color="#164372" offset="0%"></stop>
            <stop stop-color="#04458F" offset="100%"></stop>
        </linearGradient>
    </defs>
    <g id="Stories-maquetados" stroke="none" stroke-width="1" fill="none" fill-rule="evenodd">
        <g id="Derecha-Copy">
            <g id="Forma2-Copy-3" transform="translate(30.769231, 91.285714)" fill="url(#linearGradient-1)" opacity="0.478422619">
                <path d="M264.090558,12.163412 C263.968491,11.9909578 263.844642,11.8185037 263.717229,11.6478366 C250.305908,-6.4008784 221.371598,-0.142489385 204.1468,8.20411424 C192.695678,13.752135 183.419484,22.663459 172.818375,29.5500102 C161.00818,37.2219873 147.567456,40.1099247 133.593023,39.9499801 C121.372078,39.8105871 109.372099,37.364061 97.2803484,36.0666337 C84.8660557,34.7352517 72.365336,34.2223568 59.8833273,34.544033 C45.5881351,34.9130671 30.1800849,36.052337 17.2695055,42.8593626 C2.83175346,50.4723658 -4.04408786,65.7993427 3.0277733,80.9985428 C9.40109103,94.6956937 23.0315978,105.919512 36.9098023,111.372817 C55.7909677,118.790134 76.7205404,119.903491 96.7653508,118.682015 C118.263381,117.374759 139.800615,115.744039 161.023327,111.868735 C165.638703,111.026122 170.211311,110.018203 174.798175,109.037984 C210.278657,101.45 251.221855,85.3483197 265.228364,48.5092475 C267.348051,42.9353139 268.664057,37.0647234 269.087281,31.1137139 C269.554165,24.5613486 267.912053,17.577401 264.090558,12.163412" id="Fill-1"></path>
            </g>
            <g id="estrellas-copy-3">
                <path d="M158.823104,111.819451 C158.171254,112.041363 158.448126,113.134527 159.108697,113.078776 C159.244953,113.066751 159.376849,113.002254 159.479314,112.908242 L159.551257,112.865609 C160.078841,112.446927 159.312536,111.65329 158.823104,111.819451" id="Fill-33" fill="#FFFFFF"></path>
                <path d="M141.729087,150.390879 C141.077237,150.612791 141.354109,151.705956 142.01468,151.650204 C142.150936,151.63818 142.282832,151.573683 142.385297,151.479671 L142.45724,151.437037 C142.984824,151.018355 142.218519,150.224718 141.729087,150.390879" id="Fill-33" fill="#FFFFFF"></path>
                <path d="M218.652163,158.962308 C218.000314,159.18422 218.277186,160.277384 218.937757,160.221633 C219.074013,160.209608 219.205909,160.145111 219.308374,160.051099 L219.380317,160.008466 C219.907901,159.589784 219.141596,158.796147 218.652163,158.962308" id="Fill-33" fill="#FFFFFF"></path>
                <path d="M231.472676,141.819451 C230.820826,142.041363 231.097699,143.134527 231.758269,143.078776 C231.894526,143.066751 232.026422,143.002254 232.128886,142.908242 L232.20083,142.865609 C232.728414,142.446927 231.962109,141.65329 231.472676,141.819451" id="Fill-33" fill="#FFFFFF"></path>
                <path d="M240.019685,111.819451 C239.367835,112.041363 239.644708,113.134527 240.305278,113.078776 C240.441534,113.066751 240.57343,113.002254 240.675895,112.908242 L240.747838,112.865609 C241.275422,112.446927 240.509117,111.65329 240.019685,111.819451" id="Fill-33" fill="#FFFFFF"></path>
                <path d="M227.199172,73.248022 C226.547322,73.4699343 226.824195,74.5630987 227.484765,74.5073473 C227.621021,74.4953225 227.752917,74.4308258 227.855382,74.3368136 L227.927325,74.2941802 C228.45491,73.8754983 227.688604,73.081861 227.199172,73.248022" id="Fill-33" fill="#FFFFFF"></path>
                <path d="M191.180931,125.747358 C190.529081,125.96927 190.805954,127.062435 191.466524,127.006683 C191.602781,126.994658 191.734677,126.930162 191.837141,126.83615 L191.909085,126.793516 C192.436669,126.374834 191.670364,125.581197 191.180931,125.747358" id="Fill-33-Copy" fill="#FFFFFF"></path>
                <path d="M212.469606,94.9091924 C211.817756,95.1311048 212.094629,96.2242691 212.755199,96.1685177 C212.891455,96.1564929 213.023351,96.0919962 213.125816,95.9979841 L213.197759,95.9553507 C213.725343,95.5366687 212.959038,94.7430314 212.469606,94.9091924" id="Fill-33-Copy" fill="#FFFFFF"></path>
                <path d="M202.219503,177.1443 C201.567653,177.366213 201.844526,178.459377 202.505096,178.403626 C202.641352,178.391601 202.773249,178.327104 202.875713,178.233092 L202.947656,178.190459 C203.475241,177.771777 202.708936,176.978139 202.219503,177.1443" id="Fill-33-Copy" fill="#FFFFFF"></path>
                <path d="M143.872766,180.307189 C143.220916,180.529102 143.497789,181.622266 144.158359,181.566515 C144.294615,181.55449 144.426511,181.489993 144.528976,181.395981 L144.600919,181.353347 C145.128503,180.934666 144.362198,180.141028 143.872766,180.307189" id="Fill-33-Copy" fill="#FFFFFF"></path>
                <path d="M143.872766,180.307189 C143.220916,180.529102 143.497789,181.622266 144.158359,181.566515 C144.294615,181.55449 144.426511,181.489993 144.528976,181.395981 L144.600919,181.353347 C145.128503,180.934666 144.362198,180.141028 143.872766,180.307189" id="Fill-33-Copy" fill="#FFFFFF"></path>
                <path d="M145.269859,45.5455983 C144.618009,45.7675107 144.894882,46.860675 145.555452,46.8049236 C145.691709,46.7928988 145.823605,46.7284021 145.926069,46.63439 L145.998013,46.5917566 C146.525597,46.1730746 145.759292,45.3794373 145.269859,45.5455983" id="Fill-41" fill="#FFFFFF"></path>
                <path d="M186.691755,50.8277683 C186.039905,51.0496807 186.316778,52.142845 186.977348,52.0870936 C187.113605,52.0750688 187.245501,52.0105721 187.347965,51.91656 L187.419909,51.8739266 C187.947493,51.4552446 187.181188,50.6616073 186.691755,50.8277683" id="Fill-43" fill="#FFFFFF"></path>
                <path d="M97.307664,108.764931 C96.6558141,108.986843 96.9326868,110.080007 97.593257,110.025349 C97.7295133,110.013324 97.8614093,109.947735 97.963874,109.854816 L98.0358173,109.812182 C98.5634014,109.392407 97.7970964,108.59877 97.307664,108.764931" id="Fill-45" fill="#FFFFFF"></path>
                <path d="M89.6773147,63.9457402 C89.0254649,64.1676525 89.3023375,65.2608169 89.9629078,65.2050655 C90.099164,65.1930407 90.2310601,65.128544 90.3335247,65.0345318 L90.405468,64.9918984 C90.9330522,64.5732165 90.1667471,63.7795792 89.6773147,63.9457402" id="Fill-49" fill="#FFFFFF"></path>
                <path d="M0.371330835,0.813251437 C-0.280519002,1.03516379 -0.00364632866,2.12832812 0.656923907,2.07257674 C0.793180144,2.06055193 0.925076181,1.99605523 1.02754087,1.9020431 L1.09948416,1.85940969 C1.62706831,1.44072776 0.860763237,0.64709046 0.371330835,0.813251437" id="Fill-49-Copy-3" fill="#FFFFFF"></path>
                <path d="M128.072578,88.3265841 C127.827317,88.2752053 127.573335,88.2588079 127.323714,88.2555284 C127.2376,88.2544352 127.150396,88.2522489 127.064282,88.2500626 C127.061012,88.0314297 127.051201,87.8127968 127.035941,87.5952571 C127.007599,87.2334197 126.959637,86.623434 126.536698,86.5009996 C126.473475,86.4824158 126.287076,87.1656435 126.272906,87.2345129 C126.220583,87.4793817 126.205323,87.734089 126.200962,87.9855168 C126.199872,88.0718768 126.197692,88.1582368 126.195512,88.2456899 C125.989493,88.2500626 125.782383,88.2588079 125.577454,88.2839506 C125.218828,88.3265841 124.575698,88.3429815 124.451432,88.7725951 C124.432902,88.8349055 125.113093,89.0218366 125.182856,89.0360477 C125.508781,89.1060102 125.854327,89.1103829 126.191152,89.1158487 C126.195512,89.3235499 126.205323,89.530158 126.230394,89.736766 C126.272906,90.0953239 126.288166,90.7402909 126.716556,90.8649116 C126.778689,90.8834954 126.965087,90.2013609 126.980348,90.1324915 C127.050111,89.8045422 127.053381,89.4591023 127.058832,89.1213145 C127.277932,89.118035 127.494852,89.1081965 127.712862,89.0917991 C128.072578,89.06447 128.680826,89.0152776 128.804002,88.5911298 C128.821442,88.5288195 128.140161,88.3407952 128.072578,88.3265841" id="Fill-57" fill="#D5D5FD"></path>
                <path d="M128.072578,88.3265841 C127.827317,88.2752053 127.573335,88.2588079 127.323714,88.2555284 C127.2376,88.2544352 127.150396,88.2522489 127.064282,88.2500626 C127.061012,88.0314297 127.051201,87.8127968 127.035941,87.5952571 C127.007599,87.2334197 126.959637,86.623434 126.536698,86.5009996 C126.473475,86.4824158 126.287076,87.1656435 126.272906,87.2345129 C126.220583,87.4793817 126.205323,87.734089 126.200962,87.9855168 C126.199872,88.0718768 126.197692,88.1582368 126.195512,88.2456899 C125.989493,88.2500626 125.782383,88.2588079 125.577454,88.2839506 C125.218828,88.3265841 124.575698,88.3429815 124.451432,88.7725951 C124.432902,88.8349055 125.113093,89.0218366 125.182856,89.0360477 C125.508781,89.1060102 125.854327,89.1103829 126.191152,89.1158487 C126.195512,89.3235499 126.205323,89.530158 126.230394,89.736766 C126.272906,90.0953239 126.288166,90.7402909 126.716556,90.8649116 C126.778689,90.8834954 126.965087,90.2013609 126.980348,90.1324915 C127.050111,89.8045422 127.053381,89.4591023 127.058832,89.1213145 C127.277932,89.118035 127.494852,89.1081965 127.712862,89.0917991 C128.072578,89.06447 128.680826,89.0152776 128.804002,88.5911298 C128.821442,88.5288195 128.140161,88.3407952 128.072578,88.3265841" id="Fill-57" fill="#D5D5FD"></path>
                <path d="M134.348449,66.2996488 C133.543798,66.5729866 133.885573,67.9194782 134.700988,67.8508071 C134.869184,67.8359957 135.031998,67.7565527 135.158482,67.6407545 L135.24729,67.5882413 C135.898546,67.072535 134.95261,66.0949821 134.348449,66.2996488" id="Fill-49-Copy" fill="#FFFFFF"></path>
                <path d="M196.787261,17.4236384 C195.98261,17.6969762 196.324385,19.0434678 197.139801,18.9747967 C197.307997,18.9599853 197.470811,18.8805423 197.597295,18.764744 L197.686102,18.7122308 C198.337358,18.1965245 197.391422,17.2189716 196.787261,17.4236384" id="Fill-49-Copy-2" fill="#FFFFFF"></path>
                <path d="M102.757913,55.2004256 C102.106064,55.422338 102.382936,56.5155023 103.043507,56.4597509 C103.179763,56.4477261 103.311659,56.3832294 103.414123,56.2892173 L103.486067,56.2465839 C104.013651,55.8279019 103.247346,55.0342646 102.757913,55.2004256" id="Fill-51" fill="#FFFFFF"></path>
                <path d="M128.072578,88.3265841 C127.827317,88.2752053 127.573335,88.2588079 127.323714,88.2555284 C127.2376,88.2544352 127.150396,88.2522489 127.064282,88.2500626 C127.061012,88.0314297 127.051201,87.8127968 127.035941,87.5952571 C127.007599,87.2334197 126.959637,86.623434 126.536698,86.5009996 C126.473475,86.4824158 126.287076,87.1656435 126.272906,87.2345129 C126.220583,87.4793817 126.205323,87.734089 126.200962,87.9855168 C126.199872,88.0718768 126.197692,88.1582368 126.195512,88.2456899 C125.989493,88.2500626 125.782383,88.2588079 125.577454,88.2839506 C125.218828,88.3265841 124.575698,88.3429815 124.451432,88.7725951 C124.432902,88.8349055 125.113093,89.0218366 125.182856,89.0360477 C125.508781,89.1060102 125.854327,89.1103829 126.191152,89.1158487 C126.195512,89.3235499 126.205323,89.530158 126.230394,89.736766 C126.272906,90.0953239 126.288166,90.7402909 126.716556,90.8649116 C126.778689,90.8834954 126.965087,90.2013609 126.980348,90.1324915 C127.050111,89.8045422 127.053381,89.4591023 127.058832,89.1213145 C127.277932,89.118035 127.494852,89.1081965 127.712862,89.0917991 C128.072578,89.06447 128.680826,89.0152776 128.804002,88.5911298 C128.821442,88.5288195 128.140161,88.3407952 128.072578,88.3265841" id="Fill-57" fill="#D5D5FD"></path>
                <path d="M159.738463,66.6651764 C159.493202,66.6137977 159.23922,66.5974002 158.989599,66.5941207 C158.903485,66.5930276 158.816281,66.5908412 158.730167,66.5886549 C158.726897,66.3700221 158.717086,66.1513892 158.701826,65.9338495 C158.673484,65.5720121 158.625522,64.9620264 158.202583,64.839592 C158.13936,64.8210082 157.952962,65.5042359 157.938791,65.5731053 C157.886468,65.8179741 157.871208,66.0726814 157.866848,66.3241092 C157.865758,66.4104691 157.863577,66.4968291 157.861397,66.5842823 C157.655378,66.5886549 157.448268,66.5974002 157.243339,66.622543 C156.884713,66.6651764 156.241583,66.6815739 156.117317,67.1111875 C156.098787,67.1734978 156.778978,67.3604289 156.848741,67.3746401 C157.174666,67.4446026 157.520212,67.4489752 157.857037,67.4544411 C157.861397,67.6621423 157.871208,67.8687503 157.896279,68.0753584 C157.938791,68.4339163 157.954052,69.0788832 158.382441,69.203504 C158.444574,69.2220878 158.630973,68.5399532 158.646233,68.4710839 C158.715996,68.1431346 158.719267,67.7976947 158.724717,67.4599069 C158.943817,67.4566274 159.160737,67.4467889 159.378747,67.4303914 C159.738463,67.4030623 160.346711,67.3538699 160.469887,66.9297222 C160.487328,66.8674118 159.806046,66.6793876 159.738463,66.6651764" id="Fill-57" fill="#D5D5FD"></path>
                <path d="M53.2950911,13.6867895 C53.0498299,13.6354108 52.7958483,13.6190133 52.5462268,13.6157338 C52.4601129,13.6146407 52.3729089,13.6124543 52.286795,13.610268 C52.2835248,13.3916351 52.2737144,13.1730023 52.2584537,12.9554626 C52.2301124,12.5936252 52.1821502,11.9836395 51.7592108,11.8612051 C51.6959879,11.8426213 51.5095894,12.525849 51.4954187,12.5947183 C51.4430963,12.8395871 51.4278356,13.0942944 51.4234754,13.3457222 C51.4223854,13.4320822 51.4202053,13.5184422 51.4180252,13.6058953 C51.2120058,13.610268 51.0048963,13.6190133 50.7999669,13.6441561 C50.4413405,13.6867895 49.7982111,13.703187 49.6739454,14.1328005 C49.6554145,14.1951109 50.3356056,14.382042 50.4053688,14.3962531 C50.7312938,14.4662157 51.0768396,14.4705883 51.413665,14.4760541 C51.4180252,14.6837554 51.4278356,14.8903634 51.4529068,15.0969715 C51.4954187,15.4555294 51.5106794,16.1004963 51.939069,16.2251171 C52.0012019,16.2437008 52.1876004,15.5615663 52.2028611,15.492697 C52.2726243,15.1647477 52.2758945,14.8193077 52.2813447,14.48152 C52.5004447,14.4782405 52.7173647,14.468402 52.9353746,14.4520045 C53.2950911,14.4246754 53.903339,14.375483 54.0265146,13.9513353 C54.0439554,13.8890249 53.3626742,13.7010006 53.2950911,13.6867895" id="Fill-57-Copy-3" fill="#D5D5FD"></path>
                <path d="M31.2179473,179.73845 C30.972686,179.687071 30.7187044,179.670674 30.469083,179.667394 C30.382969,179.666301 30.2957651,179.664115 30.2096511,179.661929 C30.206381,179.443296 30.1965705,179.224663 30.1813098,179.007123 C30.1529685,178.645286 30.1050063,178.0353 29.682067,177.912866 C29.6188441,177.894282 29.4324455,178.57751 29.4182749,178.646379 C29.3659525,178.891248 29.3506918,179.145955 29.3463316,179.397383 C29.3452415,179.483743 29.3430614,179.570103 29.3408813,179.657556 C29.1348619,179.661929 28.9277524,179.670674 28.7228231,179.695817 C28.3641966,179.73845 27.7210672,179.754847 27.5968015,180.184461 C27.5782707,180.246771 28.2584618,180.433703 28.328225,180.447914 C28.6541499,180.517876 28.9996957,180.522249 29.3365211,180.527715 C29.3408813,180.735416 29.3506918,180.942024 29.3757629,181.148632 C29.4182749,181.50719 29.4335356,182.152157 29.8619252,182.276778 C29.924058,182.295361 30.1104566,181.613227 30.1257173,181.544357 C30.1954805,181.216408 30.1987506,180.870968 30.2042009,180.53318 C30.4233009,180.529901 30.6402208,180.520063 30.8582308,180.503665 C31.2179473,180.476336 31.8261951,180.427144 31.9493707,180.002996 C31.9668115,179.940685 31.2855304,179.752661 31.2179473,179.73845" id="Fill-57-Copy-4" fill="#D5D5FD"></path>
                <path d="M197.584996,140.993063 C197.339734,140.941684 197.085753,140.925286 196.836131,140.922007 C196.750017,140.920914 196.662813,140.918727 196.576699,140.916541 C196.573429,140.697908 196.563619,140.479275 196.548358,140.261736 C196.520017,139.899898 196.472055,139.289913 196.049115,139.167478 C195.985892,139.148894 195.799494,139.832122 195.785323,139.900991 C195.733001,140.14586 195.71774,140.400567 195.71338,140.651995 C195.71229,140.738355 195.71011,140.824715 195.70793,140.912168 C195.50191,140.916541 195.294801,140.925286 195.089871,140.950429 C194.731245,140.993063 194.088115,141.00946 193.96385,141.439074 C193.945319,141.501384 194.62551,141.688315 194.695273,141.702526 C195.021198,141.772489 195.366744,141.776861 195.703569,141.782327 C195.70793,141.990028 195.71774,142.196636 195.742811,142.403245 C195.785323,142.761802 195.800584,143.406769 196.228973,143.53139 C196.291106,143.549974 196.477505,142.867839 196.492766,142.79897 C196.562529,142.471021 196.565799,142.125581 196.571249,141.787793 C196.790349,141.784514 197.007269,141.774675 197.225279,141.758278 C197.584996,141.730948 198.193243,141.681756 198.316419,141.257608 C198.33386,141.195298 197.652579,141.007274 197.584996,140.993063" id="Fill-57-Copy-5" fill="#D5D5FD"></path>
                <path d="M183.392546,87.2239534 C183.147285,87.1725747 182.893303,87.1561773 182.643682,87.1528978 C182.557568,87.1518046 182.470364,87.1496183 182.38425,87.1474319 C182.38098,86.9287991 182.371169,86.7101662 182.355908,86.4926265 C182.327567,86.1307891 182.279605,85.5208034 181.856666,85.398369 C181.793443,85.3797852 181.607044,86.0630129 181.592874,86.1318823 C181.540551,86.3767511 181.52529,86.6314584 181.52093,86.8828862 C181.51984,86.9692462 181.51766,87.0556061 181.51548,87.1430593 C181.309461,87.1474319 181.102351,87.1561773 180.897422,87.18132 C180.538795,87.2239534 179.895666,87.2403509 179.7714,87.6699645 C179.752869,87.7322748 180.43306,87.9192059 180.502824,87.9334171 C180.828749,88.0033796 181.174294,88.0077523 181.51112,88.0132181 C181.51548,88.2209193 181.52529,88.4275274 181.550362,88.6341354 C181.592874,88.9926933 181.608134,89.6376603 182.036524,89.762281 C182.098657,89.7808648 182.285055,89.0987303 182.300316,89.0298609 C182.370079,88.7019116 182.373349,88.3564717 182.3788,88.0186839 C182.5979,88.0154044 182.814819,88.0055659 183.032829,87.9891685 C183.392546,87.9618394 184.000794,87.912647 184.123969,87.4884992 C184.14141,87.4261888 183.460129,87.2381646 183.392546,87.2239534" id="Fill-57-Copy-6" fill="#D5D5FD"></path>
                <path d="M206.18562,61.3973852 C205.940359,61.3460064 205.686377,61.329609 205.436756,61.3263295 C205.350642,61.3252363 205.263438,61.32305 205.177324,61.3208637 C205.174054,61.1022308 205.164243,60.8835979 205.148983,60.6660582 C205.120641,60.3042209 205.072679,59.6942352 204.64974,59.5718008 C204.586517,59.553217 204.400118,60.2364447 204.385948,60.305314 C204.333625,60.5501828 204.318365,60.8048901 204.314004,61.0563179 C204.312914,61.1426779 204.310734,61.2290379 204.308554,61.316491 C204.102535,61.3208637 203.895425,61.329609 203.690496,61.3547518 C203.331869,61.3973852 202.68874,61.4137826 202.564474,61.8433962 C202.545943,61.9057066 203.226135,62.0926377 203.295898,62.1068488 C203.621823,62.1768113 203.967368,62.181184 204.304194,62.1866498 C204.308554,62.394351 204.318365,62.6009591 204.343436,62.8075671 C204.385948,63.166125 204.401208,63.811092 204.829598,63.9357127 C204.891731,63.9542965 205.078129,63.272162 205.09339,63.2032926 C205.163153,62.8753433 205.166423,62.5299034 205.171874,62.1921156 C205.390974,62.1888361 205.607894,62.1789977 205.825904,62.1626002 C206.18562,62.1352711 206.793868,62.0860787 206.917043,61.6619309 C206.934484,61.5996206 206.253203,61.4115963 206.18562,61.3973852" id="Fill-57-Copy-7" fill="#D5D5FD"></path>
                <path d="M199.950404,32.6641221 C199.705143,32.6127434 199.451161,32.5963459 199.20154,32.5930664 C199.115426,32.5919733 199.028222,32.589787 198.942108,32.5876006 C198.938838,32.3689678 198.929027,32.1503349 198.913766,31.9327952 C198.885425,31.5709578 198.837463,30.9609721 198.414524,30.8385377 C198.351301,30.8199539 198.164902,31.5031816 198.150731,31.572051 C198.098409,31.8169198 198.083148,32.0716271 198.078788,32.3230549 C198.077698,32.4094148 198.075518,32.4957748 198.073338,32.583228 C197.867318,32.5876006 197.660209,32.5963459 197.45528,32.6214887 C197.096653,32.6641221 196.453524,32.6805196 196.329258,33.1101332 C196.310727,33.1724435 196.990918,33.3593746 197.060682,33.3735858 C197.386606,33.4435483 197.732152,33.4479209 198.068978,33.4533868 C198.073338,33.661088 198.083148,33.867696 198.108219,34.0743041 C198.150731,34.432862 198.165992,35.0778289 198.594382,35.2024497 C198.656515,35.2210335 198.842913,34.5388989 198.858174,34.4700296 C198.927937,34.1420803 198.931207,33.7966404 198.936657,33.4588526 C199.155757,33.4555731 199.372677,33.4457346 199.590687,33.4293372 C199.950404,33.402008 200.558652,33.3528156 200.681827,32.9286679 C200.699268,32.8663575 200.017987,32.6783333 199.950404,32.6641221" id="Fill-57-Copy-8" fill="#D5D5FD"></path>
                <path d="M144.757544,1.8259566 C144.512283,1.77457788 144.258301,1.75818041 144.00868,1.75490092 C143.922566,1.75380776 143.835362,1.75162143 143.749248,1.7494351 C143.745978,1.53080223 143.736167,1.31216937 143.720907,1.09462967 C143.692565,0.732792279 143.644603,0.122806588 143.221664,0.00037218367 C143.158441,-0.0182116098 142.972042,0.665016091 142.957872,0.733885444 C142.905549,0.978754252 142.890289,1.23346154 142.885929,1.48488933 C142.884838,1.57124931 142.882658,1.6576093 142.880478,1.74506244 C142.674459,1.7494351 142.467349,1.75818041 142.26242,1.78332319 C141.903794,1.8259566 141.260664,1.84235407 141.136398,2.27196764 C141.117868,2.33427801 141.798059,2.52120911 141.867822,2.53542025 C142.193747,2.60538276 142.539293,2.60975542 142.876118,2.61522124 C142.880478,2.82292246 142.890289,3.02953052 142.91536,3.23613858 C142.957872,3.59469647 142.973133,4.23966342 143.401522,4.36428416 C143.463655,4.38286795 143.650054,3.70073341 143.665314,3.63186406 C143.735077,3.30391476 143.738348,2.95847484 143.743798,2.62068706 C143.962898,2.61740757 144.179818,2.60756909 144.397828,2.59117163 C144.757544,2.56384252 145.365792,2.51465012 145.488968,2.09050237 C145.506408,2.028192 144.825127,1.84016774 144.757544,1.8259566" id="Fill-57-Copy-9" fill="#D5D5FD"></path>
                <path d="M166.834688,166.296173 C166.589427,166.244794 166.335445,166.228397 166.085824,166.225117 C165.99971,166.224024 165.912506,166.221838 165.826392,166.219651 C165.823122,166.001018 165.813311,165.782386 165.798051,165.564846 C165.769709,165.203008 165.721747,164.593023 165.298808,164.470588 C165.235585,164.452005 165.049186,165.135232 165.035016,165.204102 C164.982693,165.44897 164.967433,165.703678 164.963072,165.955105 C164.961982,166.041465 164.959802,166.127825 164.957622,166.215279 C164.751603,166.219651 164.544493,166.228397 164.339564,166.253539 C163.980937,166.296173 163.337808,166.31257 163.213542,166.742184 C163.195011,166.804494 163.875203,166.991425 163.944966,167.005636 C164.270891,167.075599 164.616437,167.079972 164.953262,167.085437 C164.957622,167.293139 164.967433,167.499747 164.992504,167.706355 C165.035016,168.064913 165.050276,168.70988 165.478666,168.8345 C165.540799,168.853084 165.727197,168.17095 165.742458,168.10208 C165.812221,167.774131 165.815491,167.428691 165.820942,167.090903 C166.040042,167.087624 166.256962,167.077785 166.474972,167.061388 C166.834688,167.034059 167.442936,166.984866 167.566112,166.560718 C167.583552,166.498408 166.902271,166.310384 166.834688,166.296173" id="Fill-57-Copy" fill="#D5D5FD"></path>
                <path d="M37.249621,54.5609245 C37.0043598,54.5095458 36.7503781,54.4931483 36.5007567,54.4898688 C36.4146428,54.4887756 36.3274388,54.4865893 36.2413248,54.484403 C36.2380547,54.2657701 36.2282442,54.0471372 36.2129835,53.8295975 C36.1846422,53.4677602 36.13668,52.8577745 35.7137407,52.7353401 C35.6505178,52.7167563 35.4641193,53.399984 35.4499486,53.4688533 C35.3976262,53.7137221 35.3823655,53.9684294 35.3780053,54.2198572 C35.3769153,54.3062172 35.3747352,54.3925772 35.3725551,54.4800303 C35.1665356,54.484403 34.9594262,54.4931483 34.7544968,54.5182911 C34.3958704,54.5609245 33.7527409,54.5773219 33.6284752,55.0069355 C33.6099444,55.0692459 34.2901355,55.256177 34.3598987,55.2703881 C34.6858236,55.3403506 35.0313695,55.3447233 35.3681949,55.3501891 C35.3725551,55.5578903 35.3823655,55.7644984 35.4074367,55.9711065 C35.4499486,56.3296643 35.4652093,56.9746313 35.8935989,57.099252 C35.9557318,57.1178358 36.1421303,56.4357013 36.157391,56.3668319 C36.2271542,56.0388826 36.2304243,55.6934427 36.2358746,55.3556549 C36.4549746,55.3523754 36.6718945,55.342537 36.8899045,55.3261395 C37.249621,55.2988104 37.8578688,55.249618 37.9810445,54.8254702 C37.9984853,54.7631599 37.3172041,54.5751356 37.249621,54.5609245" id="Fill-59" fill="#D5D5FD"></path>
                <path d="M19.4334833,164.255579 C19.188222,164.2042 18.9342404,164.187803 18.684619,164.184523 C18.598505,164.18343 18.5113011,164.181244 18.4251871,164.179058 C18.421917,163.960425 18.4121065,163.741792 18.3968458,163.524252 C18.3685045,163.162415 18.3205423,162.552429 17.897603,162.428901 C17.8343801,162.411411 17.6479815,163.094639 17.6338109,163.163508 C17.5814885,163.40947 17.5662278,163.664177 17.5618676,163.914512 C17.5607775,164.000872 17.5585974,164.088325 17.5564173,164.174685 C17.3503979,164.179058 17.1432884,164.187803 16.9383591,164.212946 C16.5797326,164.255579 15.9366032,164.27307 15.8123375,164.700497 C15.7938067,164.7639 16.4739978,164.950832 16.543761,164.965043 C16.8696859,165.035005 17.2152317,165.039378 17.5520571,165.044844 C17.5564173,165.251452 17.5662278,165.460246 17.5912989,165.665761 C17.6338109,166.024319 17.6490716,166.669286 18.0774612,166.793907 C18.139594,166.81249 18.3259926,166.130356 18.3412533,166.061487 C18.4110165,165.73463 18.4142866,165.388097 18.4197369,165.051403 C18.6388369,165.04703 18.8557568,165.037192 19.0737668,165.020794 C19.4334833,164.993465 20.0417311,164.945366 20.1649067,164.520125 C20.1823475,164.457814 19.5010664,164.270883 19.4334833,164.255579" id="Fill-61" fill="#D5D5FD"></path>
                <path d="M64.5989728,115.607156 C64.3537116,115.554684 64.09973,115.539379 63.8501085,115.5361 C63.7629046,115.535007 63.6767906,115.53282 63.5906767,115.530634 C63.5874065,115.310908 63.5775961,115.093368 63.5623354,114.875829 C63.5339941,114.513991 63.4860319,113.904006 63.0630925,113.780478 C62.9998696,113.762987 62.812381,114.446215 62.7993004,114.515084 C62.7469781,114.761046 62.7306273,115.014661 62.7273572,115.266088 C62.7262671,115.352448 62.724087,115.438808 62.7219069,115.526261 C62.5158875,115.530634 62.308778,115.539379 62.1038486,115.564522 C61.7452222,115.607156 61.1020928,115.623553 60.9778271,116.052073 C60.9592962,116.115477 61.6394874,116.302408 61.7092506,116.316619 C62.0351755,116.386582 62.3807213,116.390954 62.7175467,116.39642 C62.7219069,116.603028 62.7317174,116.81073 62.7567885,117.017338 C62.7993004,117.375895 62.8145611,118.020862 63.2429508,118.145483 C63.3050836,118.164067 63.4914821,117.481932 63.5067428,117.413063 C63.575416,117.086207 63.5797762,116.739674 63.5852264,116.401886 C63.8032364,116.398607 64.0212464,116.388768 64.2381663,116.372371 C64.5989728,116.345042 65.2072207,116.295849 65.3303963,115.871701 C65.3478371,115.809391 64.6665559,115.62246 64.5989728,115.607156" id="Fill-71" fill="#D5D5FD"></path>
            </g>
            <g id="planeta-copy-2" transform="translate(53.000000, 50.000000)" fill-rule="nonzero">
                <ellipse id="Oval" fill="#407BFF" cx="20.9714759" cy="14.580989" rx="14.5183761" ry="14.580989"></ellipse>
                <ellipse id="Oval" fill="#FFFFFF" opacity="0.3" cx="20.9714759" cy="14.580989" rx="14.5183761" ry="14.580989"></ellipse>
                <path d="M30.1445529,3.29076923 C23.5235183,1.31421498 16.4329249,4.29888424 13.1937387,10.4259371 C9.9545524,16.55299 11.4647202,24.1239234 16.8039546,28.5250549 C23.4361774,30.516411 30.5458129,27.5282708 33.7889605,21.3863517 C37.032108,15.2444325 35.5066208,7.65723304 30.1445529,3.26043956 L30.1445529,3.29076923 Z" id="Path" fill="#407BFF" opacity="0.4"></path>
                <path d="M7.11748735,18.956044 C-8.3823702,26.2806593 3.1764617,31.9295604 25.0181996,24.0438462 C45.244268,16.741978 52.9526725,7.53692308 34.8330144,10.3954945 C35.806946,14.2246154 10.477174,24.1348352 7.11748735,18.956044 Z" id="Path" fill="#407BFF"></path>
            </g>
            <g id="luna-copy-2" transform="translate(46.000000, 144.000000)" fill-rule="nonzero">
                <ellipse id="Oval" fill="#407BFF" cx="10.3019317" cy="10.3186364" rx="10.2892385" ry="10.3186364"></ellipse>
                <ellipse id="Oval" fill="#FFFFFF" opacity="0.7" cx="10.3019317" cy="10.3186364" rx="10.2892385" ry="10.3186364"></ellipse>
                <path d="M6.76113914,2.53893224 C5.36062914,2.53125148 3.97363888,2.81399194 2.68732407,3.36954545 C-0.579997516,6.96192904 -0.903269755,12.3543274 1.91134446,16.3134072 C4.72595867,20.272487 9.91464943,21.7238615 14.3662285,19.7972727 L14.3662285,19.7972727 C17.0959432,16.7721617 17.7941114,12.4190375 16.1479547,8.68809392 C14.501798,4.95715035 10.8198509,2.54766766 6.75162088,2.53893224 L6.76113914,2.53893224 Z" id="Path" fill="#407BFF" opacity="0.2"></path>
                <path d="M5.73316711,5.25954545 C5.73316711,5.78672635 5.30702012,6.21409091 4.78134116,6.21409091 C4.25566221,6.21409091 3.82951521,5.78672635 3.82951521,5.25954545 C3.82951521,4.73236456 4.25566221,4.305 4.78134116,4.305 C5.30702012,4.305 5.73316711,4.73236456 5.73316711,5.25954545 Z" id="Path" fill="#407BFF" opacity="0.2"></path>
                <path d="M16.7838664,4.32409091 C16.7838664,4.85127181 16.3577194,5.27863636 15.8320405,5.27863636 C15.3063615,5.27863636 14.8802145,4.85127181 14.8802145,4.32409091 C14.8802145,3.79691001 15.3063615,3.36954545 15.8320405,3.36954545 C16.3577194,3.36954545 16.7838664,3.79691001 16.7838664,4.32409091 Z" id="Path" fill="#407BFF" opacity="0.2"></path>
                <path d="M14.8802145,11.0440909 C14.8802145,11.898124 14.1898564,12.5904545 13.3382565,12.5904545 C12.4866566,12.5904545 11.7962984,11.898124 11.7962984,11.0440909 C11.7962984,10.1900579 12.4866566,9.49772727 13.3382565,9.49772727 L13.3382565,9.49772727 C14.1898564,9.49772727 14.8802145,10.1900579 14.8802145,11.0440909 Z" id="Path" fill="#407BFF" opacity="0.2"></path>
                <path d="M10.0259244,15.4254545 C10.0259244,16.2593822 9.52498747,17.0111959 8.75673383,17.3303262 C7.98848019,17.6494564 7.104182,17.473056 6.51618612,16.8833802 C5.92819024,16.2937043 5.75229239,15.4068795 6.07051347,14.6364309 C6.38873455,13.8659822 7.13840635,13.363614 7.9699581,13.363614 C8.51600481,13.3610834 9.04042263,13.5774901 9.42654016,13.9647108 C9.81265768,14.3519315 10.0284479,14.8778477 10.0259244,15.4254545 L10.0259244,15.4254545 Z" id="Path" fill="#407BFF" opacity="0.2"></path>
            </g>
            <g id="Group-8-Copy-2" transform="translate(37.179487, 86.142857)" fill-rule="nonzero">
                <ellipse id="Oval" fill="#407BFF" cx="2.35799623" cy="2.36473336" rx="2.35799623" ry="2.36473336"></ellipse>
                <path d="M1.11087822,1.96010121 C1.44931,0.910488402 2.46776113,0.23612826 3.5631943,0.336317633 C3.4118101,0.243812293 3.24997689,0.169720829 3.08111507,0.115609186 C1.86021451,-0.230177675 0.585338366,0.454763471 0.196022506,1.6656567 C-0.193293355,2.87654993 0.442513547,4.17931261 1.63487738,4.61385753 C1.80483062,4.66937315 1.9807053,4.70464859 2.15887655,4.71895679 C1.20973041,4.15782193 0.7745932,3.01232324 1.11087822,1.96010121 L1.11087822,1.96010121 Z" id="Path" fill="#FFFFFF" opacity="0.2"></path>
            </g>
        </g>
    </g>
</svg>