<svg width="186" height="41" viewBox="0 0 186 41" fill="none" xmlns="http://www.w3.org/2000/svg">
<g clip-path="url(#clip0)">
<path d="M26.7219 15.9694C24.713 14.9852 22.5222 14.427 20.2872 14.3298C18.2268 14.3298 17.1935 15.0537 17.1935 16.1859C17.1935 17.3182 18.6475 17.64 20.479 17.9122L22.2733 18.1844C26.6415 18.8465 29.0793 20.8017 29.0793 24.217C29.0793 28.3811 25.6639 31.0664 19.7984 31.0664C17.045 31.0664 13.444 30.5466 10.8268 28.6905L12.9676 24.5697C14.9973 25.9235 17.3966 26.6152 19.8355 26.5497C22.3537 26.5497 23.5479 25.8443 23.5479 24.6563C23.5479 23.6788 22.5331 23.1343 20.2005 22.8002L18.5547 22.5712C13.8895 21.9525 11.5816 19.8859 11.5816 16.452C11.5816 12.3127 14.7867 9.85634 20.0953 9.85634C23.0198 9.80134 25.9138 10.4574 28.5286 11.7682L26.7219 15.9694Z" fill="#F8FAFB"/>
<path d="M47.7835 16.3035H40.4763V22.5465C40.4763 25.0647 41.8066 25.9866 43.4957 25.9866C44.899 25.8616 46.2492 25.3896 47.4246 24.613L49.2808 28.9441C47.3358 30.3442 44.995 31.0877 42.5985 31.0664C37.5992 31.0664 35.0438 28.2326 35.0438 23.0229V16.3035H30.4714L32.5132 11.4712H35.0438V4.38058H40.4763V11.4712H47.7835V16.3035Z" fill="#F8FAFB"/>
<path d="M72.9037 20.4242C72.9037 26.5064 68.257 31.0416 61.9709 31.0416C55.6846 31.0416 51.0999 26.5064 51.0999 20.4242C51.0999 14.3421 55.7218 9.80685 61.9833 9.80685C68.2447 9.80685 72.9037 14.3483 72.9037 20.4242ZM56.6251 20.4242C56.6251 23.6911 58.9144 25.9928 61.9709 25.9928C65.0273 25.9928 67.3413 23.6973 67.3413 20.4242C67.3413 17.1512 65.0334 14.8557 61.9709 14.8557C58.9082 14.8557 56.6251 17.1697 56.6251 20.4242Z" fill="#F8FAFB"/>
<path d="M100.437 38.9304H94.4849L101.538 26.2341L92.8391 10.3637H99.0264L104.595 20.7274L109.91 10.3637H115.862L100.437 38.9304Z" fill="#F8FAFB"/>
<path d="M91.28 10.7783L89.0649 15.8456C88.1931 15.4328 87.2397 15.2213 86.2744 15.2269C83.6758 15.2269 81.9062 16.8109 81.9062 19.855V31.0664H76.3376V10.4565H81.7268V12.7396C82.9952 10.7783 85.0184 9.94916 87.5552 9.94916C88.8372 9.99371 90.1 10.2749 91.28 10.7783Z" fill="#F8FAFB"/>
<path d="M5.10268 13.3642H0.647827C0.652738 9.83766 2.05584 6.45692 4.54951 3.96324C7.04318 1.46957 10.4239 0.0664648 13.9505 0.061554V4.51639C11.6069 4.52616 9.36211 5.46149 7.70497 7.11865C6.04776 8.77585 5.11245 11.0207 5.10268 13.3642Z" fill="#1273EB"/>
<path d="M180.749 26.791H185.204C185.199 30.3176 183.795 33.6983 181.302 36.192C178.808 38.6856 175.427 40.0888 171.901 40.0937V35.6388C173.065 35.6496 174.221 35.428 175.299 34.9872C176.377 34.5463 177.357 33.895 178.181 33.0713C179.005 32.2476 179.656 31.2679 180.097 30.1895C180.538 29.1113 180.759 27.9559 180.749 26.791Z" fill="#1273EB"/>
<path d="M131.856 14.8495C129.917 13.6434 127.68 13.0007 125.397 12.9933C122.581 12.9933 120.725 14.1813 120.725 16.087C120.725 17.7328 122.161 18.5619 124.747 18.8589L127.08 19.1497C131.275 19.6942 133.712 21.4204 133.712 24.6564C133.712 28.4059 130.334 30.7632 125.05 30.7632C122.107 30.8191 119.222 29.9347 116.815 28.2388L118.257 25.9062C119.754 27.0694 121.759 28.0532 125.094 28.0532C128.428 28.0532 130.532 26.9457 130.532 24.8605C130.532 23.2766 129.196 22.3176 126.405 21.9835L124.048 21.7174C119.605 21.1729 117.526 19.193 117.526 16.254C117.526 12.5417 120.67 10.2709 125.403 10.2709C128.168 10.2209 130.889 10.9661 133.242 12.4179L131.856 14.8495Z" fill="#F8FAFB"/>
<path d="M155.504 20.4552C155.506 20.8459 155.485 21.2363 155.442 21.6246H139.621C140.061 25.8753 143.043 28.0656 146.607 28.0656C148.931 28.0641 151.167 27.1794 152.862 25.5907L154.526 27.7191C153.452 28.7539 152.18 29.5612 150.786 30.0928C149.392 30.6244 147.905 30.8692 146.415 30.8127C140.58 30.8127 136.435 26.6672 136.435 20.5604C136.435 14.4535 140.605 10.2833 146.229 10.2833C151.587 10.2647 155.467 14.4535 155.504 20.4552ZM139.665 19.1002H152.336C151.94 15.3878 149.527 13.0366 146.149 13.0366C142.517 13.0366 140.197 15.5363 139.665 19.1002Z" fill="#F8FAFB"/>
<path d="M172.637 14.0761H164.11V23.4251C164.11 26.5187 165.738 27.8614 168.033 27.8614C169.526 27.8382 170.975 27.3517 172.179 26.4692L173.639 28.8204C171.958 30.1065 169.896 30.7965 167.78 30.7818C163.529 30.7818 161.004 28.4492 161.004 23.487V14.0761H156.673V11.2671H161.004V4.99933H164.098V11.2794H172.624L172.637 14.0761Z" fill="#F8FAFB"/>
</g>
<defs>
<clipPath id="clip0">
<rect width="185" height="40.2174" fill="white" transform="translate(0.5)"/>
</clipPath>
</defs>
</svg>
